<svg width="32" height="32" viewBox="0 0 32 32" xmlns="http://www.w3.org/2000/svg">
  <defs>
    <linearGradient id="akGradient" x1="0%" y1="0%" x2="100%" y2="100%">
      <stop offset="0%" style="stop-color:#78dbf9"/>
      <stop offset="100%" style="stop-color:#764ba2"/>
    </linearGradient>
  </defs>
  
  <!-- Background -->
  <rect width="32" height="32" fill="#1a1a2e"/>
  
  <!-- Letter A - Left side -->
  <rect x="4" y="24" width="2" height="2" fill="url(#akGradient)"/>
  <rect x="4" y="22" width="2" height="2" fill="url(#akGradient)"/>
  <rect x="4" y="20" width="2" height="2" fill="url(#akGradient)"/>
  <rect x="4" y="18" width="2" height="2" fill="url(#akGradient)"/>
  <rect x="4" y="16" width="2" height="2" fill="url(#akGradient)"/>
  <rect x="4" y="14" width="2" height="2" fill="url(#akGradient)"/>
  <rect x="4" y="12" width="2" height="2" fill="url(#akGradient)"/>
  <rect x="4" y="10" width="2" height="2" fill="url(#akGradient)"/>
  
  <!-- Letter A - Right side -->
  <rect x="10" y="24" width="2" height="2" fill="url(#akGradient)"/>
  <rect x="10" y="22" width="2" height="2" fill="url(#akGradient)"/>
  <rect x="10" y="20" width="2" height="2" fill="url(#akGradient)"/>
  <rect x="10" y="18" width="2" height="2" fill="url(#akGradient)"/>
  <rect x="10" y="16" width="2" height="2" fill="url(#akGradient)"/>
  <rect x="10" y="14" width="2" height="2" fill="url(#akGradient)"/>
  <rect x="10" y="12" width="2" height="2" fill="url(#akGradient)"/>
  <rect x="10" y="10" width="2" height="2" fill="url(#akGradient)"/>
  
  <!-- Letter A - Top -->
  <rect x="6" y="8" width="2" height="2" fill="url(#akGradient)"/>
  <rect x="8" y="8" width="2" height="2" fill="url(#akGradient)"/>
  
  <!-- Letter A - Cross bar -->
  <rect x="6" y="16" width="2" height="2" fill="url(#akGradient)"/>
  <rect x="8" y="16" width="2" height="2" fill="url(#akGradient)"/>
  
  <!-- Letter K - Left side -->
  <rect x="16" y="24" width="2" height="2" fill="url(#akGradient)"/>
  <rect x="16" y="22" width="2" height="2" fill="url(#akGradient)"/>
  <rect x="16" y="20" width="2" height="2" fill="url(#akGradient)"/>
  <rect x="16" y="18" width="2" height="2" fill="url(#akGradient)"/>
  <rect x="16" y="16" width="2" height="2" fill="url(#akGradient)"/>
  <rect x="16" y="14" width="2" height="2" fill="url(#akGradient)"/>
  <rect x="16" y="12" width="2" height="2" fill="url(#akGradient)"/>
  <rect x="16" y="10" width="2" height="2" fill="url(#akGradient)"/>
  <rect x="16" y="8" width="2" height="2" fill="url(#akGradient)"/>
  
  <!-- Letter K - Upper diagonal -->
  <rect x="18" y="16" width="2" height="2" fill="url(#akGradient)"/>
  <rect x="20" y="14" width="2" height="2" fill="url(#akGradient)"/>
  <rect x="22" y="12" width="2" height="2" fill="url(#akGradient)"/>
  <rect x="24" y="10" width="2" height="2" fill="url(#akGradient)"/>
  <rect x="26" y="8" width="2" height="2" fill="url(#akGradient)"/>
  
  <!-- Letter K - Lower diagonal -->
  <rect x="18" y="18" width="2" height="2" fill="url(#akGradient)"/>
  <rect x="20" y="20" width="2" height="2" fill="url(#akGradient)"/>
  <rect x="22" y="22" width="2" height="2" fill="url(#akGradient)"/>
  <rect x="24" y="24" width="2" height="2" fill="url(#akGradient)"/>
</svg>